<svg viewBox="0 0 24 24" fill="#000000" width="800px" height="800px" xmlns="http://www.w3.org/2000/svg">
  <defs></defs>
  <path d="M 12 2 C 17.52 2 22 6.48 22 12 C 22 17.52 17.52 22 12 22 C 6.48 22 2 17.52 2 12 C 2 6.48 6.48 2 12 2" style="fill-rule: nonzero;"></path>
  <path d="M 15.36 9.96 C 15.36 11.05 14.69 11.63 14.049999999999999 12.200000000000001 C 13.52 12.670000000000002 13.02 13.100000000000001 12.889999999999999 13.8 L 12.85 14 L 11.1 14 L 11.129999999999999 13.72 C 11.27 12.55 11.93 11.96 12.6 11.450000000000001 C 13.12 11.05 13.61 10.680000000000001 13.61 9.96 C 13.61 9.450000000000001 13.379999999999999 8.99 12.979999999999999 8.670000000000002 C 12.579999999999998 8.360000000000001 12.059999999999999 8.250000000000002 11.559999999999999 8.380000000000003 C 10.969999999999999 8.530000000000003 10.509999999999998 9.050000000000002 10.37 9.720000000000002 L 10.32 10 L 8.57 10 L 8.63 9.58 C 8.83 8.18 9.780000000000001 7.05 11.05 6.71 C 12.100000000000001 6.42 13.190000000000001 6.63 14.030000000000001 7.28 C 14.88 7.92 15.36 8.9 15.36 9.96&quot; fill=&quot;#FFFFFF" style="fill-rule: nonzero; fill: rgb(255, 255, 255);"></path>
  <path d="M 12 18 C 12.55 18 13 17.55 13 17 C 13 16.45 12.55 16 12 16 C 11.45 16 11 16.45 11 17 C 11 17.55 11.45 18 12 18" style="fill-rule: nonzero; fill: rgb(255, 255, 255);"></path>
</svg>