<?xml version="1.0" standalone="no"?>
<!DOCTYPE svg PUBLIC "-//W3C//DTD SVG 20010904//EN"
 "http://www.w3.org/TR/2001/REC-SVG-20010904/DTD/svg10.dtd">
<svg version="1.0" xmlns="http://www.w3.org/2000/svg"
 width="1440.000000pt" height="308.000000pt" viewBox="0 0 1440.000000 308.000000"
 preserveAspectRatio="xMidYMid meet">

<g transform="translate(0.000000,308.000000) scale(0.100000,-0.100000)"
fill="#000000" stroke="none">
<path d="M5125 2610 c-273 -55 -453 -322 -495 -735 -15 -140 -8 -359 14 -485
34 -189 105 -340 211 -445 115 -114 242 -162 410 -152 151 9 271 59 392 164
l48 42 -74 145 -73 146 -52 -47 c-82 -74 -143 -98 -252 -98 -83 0 -94 2 -140
30 -89 55 -149 172 -175 337 -16 100 -6 385 15 463 40 147 112 247 201 281 33
12 65 15 122 12 92 -5 126 -21 200 -91 32 -30 57 -47 62 -41 5 5 40 67 77 138
l68 130 -70 65 c-83 78 -147 115 -235 136 -68 16 -188 18 -254 5z"/>
<path d="M6595 2611 c-60 -27 -105 -111 -105 -196 0 -175 159 -263 267 -148
78 82 67 263 -20 325 -32 23 -109 33 -142 19z"/>
<path d="M9910 2410 l0 -170 205 0 205 0 0 -705 0 -705 150 0 150 0 0 705 0
705 205 0 205 0 0 170 0 170 -560 0 -560 0 0 -170z"/>
<path d="M12140 1705 l0 -876 133 3 132 3 5 43 5 43 39 -40 c57 -59 124 -85
218 -85 66 0 86 5 142 33 146 72 222 222 247 490 24 261 -31 509 -142 635
-114 130 -326 147 -452 36 l-37 -32 -2 309 -3 308 -142 3 -143 3 0 -876z m499
55 c87 -25 130 -115 139 -288 9 -196 -32 -328 -114 -367 -44 -21 -105 -16
-143 12 -87 63 -124 310 -74 493 21 78 50 119 97 141 48 22 51 22 95 9z"/>
<path d="M7417 2060 c-55 -14 -108 -44 -142 -80 l-30 -32 -5 39 -5 38 -127 3
-128 3 0 -601 0 -600 139 0 140 0 3 383 3 382 25 50 c33 66 77 95 146 95 41 0
59 -5 82 -25 51 -42 55 -75 59 -497 l5 -388 139 0 140 0 -3 448 c-4 398 -6
453 -22 502 -44 133 -107 213 -201 256 -60 28 -159 38 -218 24z"/>
<path d="M9395 2058 c-85 -11 -155 -49 -219 -118 -66 -72 -109 -158 -135 -271
-69 -293 -10 -608 142 -759 124 -124 322 -152 496 -70 60 29 171 122 171 144
0 6 -31 57 -68 113 l-68 103 -44 -45 c-56 -57 -112 -79 -184 -73 -100 8 -174
85 -192 197 l-7 41 296 0 296 0 7 36 c11 57 -3 283 -21 349 -29 104 -74 186
-139 251 -90 90 -193 122 -331 102z m133 -292 c56 -29 98 -95 109 -171 l6 -45
-178 0 -178 0 7 42 c21 133 141 222 234 174z"/>
<path d="M13514 2060 c-169 -24 -296 -158 -356 -377 -30 -108 -32 -392 -4
-498 26 -100 78 -204 131 -263 113 -125 327 -165 494 -91 54 24 145 92 171
129 l19 26 -70 107 -69 108 -32 -36 c-88 -101 -244 -112 -325 -24 -25 28 -58
99 -67 147 l-5 32 294 0 c219 0 296 3 301 12 14 21 17 172 6 254 -45 331 -230
510 -488 474z m156 -310 c35 -25 74 -100 85 -162 l7 -38 -181 0 -180 0 5 33
c9 47 42 118 67 146 51 55 137 64 197 21z"/>
<path d="M8265 2046 c-66 -21 -98 -42 -148 -95 -57 -61 -100 -148 -124 -251
-28 -116 -25 -446 5 -553 58 -213 166 -330 323 -352 92 -14 215 28 277 92 l32
34 0 -53 c-1 -214 -256 -289 -474 -139 l-44 31 -47 -141 c-55 -165 -58 -154
64 -218 105 -54 180 -74 281 -74 235 -1 373 96 448 318 l27 80 3 653 3 652
-141 0 -140 0 0 -42 0 -42 -37 36 c-57 55 -115 78 -198 77 -38 0 -88 -6 -110
-13z m207 -286 c79 -22 125 -115 135 -275 7 -114 -10 -225 -45 -295 -35 -70
-69 -95 -132 -95 -63 0 -97 25 -132 95 -50 100 -61 311 -23 438 19 63 65 119
109 131 42 12 46 12 88 1z"/>
<path d="M6275 2026 c-22 -7 -53 -20 -70 -29 -32 -17 -106 -90 -123 -121 -8
-16 -11 -1 -17 67 l-7 87 -124 0 -124 0 0 -600 0 -600 140 0 140 0 0 288 c0
318 10 394 57 471 16 24 45 58 66 75 35 28 47 31 118 35 l79 3 0 169 0 169
-47 -1 c-27 0 -66 -6 -88 -13z"/>
<path d="M6510 1430 l0 -600 140 0 140 0 0 600 0 600 -140 0 -140 0 0 -600z"/>
<path d="M11112 1573 c4 -445 4 -460 26 -517 31 -83 64 -137 111 -179 61 -55
98 -70 184 -75 97 -6 152 13 219 76 l48 45 0 -47 0 -47 128 3 127 3 0 595 0
595 -140 0 -140 0 -5 -390 c-6 -437 -6 -441 -79 -491 -68 -46 -145 -25 -177
48 -17 39 -19 79 -22 441 l-3 397 -140 0 -140 0 3 -457z"/>
<path d="M1911 1309 c-1 -23 -5 -26 -31 -25 -16 0 -30 5 -30 10 0 6 -5 5 -11
-1 -8 -8 -20 -8 -35 -3 -13 5 -24 6 -24 1 0 -4 -7 -8 -15 -8 -8 0 -12 4 -9 9
8 12 -10 10 -24 -4 -7 -7 -12 -8 -12 -2 0 6 -7 11 -15 11 -8 0 -15 -4 -15 -9
0 -5 -6 -6 -12 -1 -7 4 -64 8 -126 9 -62 1 -116 4 -119 8 -3 3 -12 1 -20 -5
-7 -6 -13 -8 -13 -3 0 10 -57 11 -66 1 -3 -3 -16 -3 -28 1 -11 4 -131 7 -266
7 -158 -1 -248 3 -252 10 -5 7 -8 7 -8 -1 0 -6 -14 -9 -32 -7 -61 7 -124 6
-137 -1 -6 -4 -17 -4 -24 1 -15 11 -118 10 -136 -2 -9 -5 -12 -4 -8 2 4 7 -5
10 -23 9 l-30 -1 0 -126 c0 -70 4 -171 9 -225 6 -55 12 -129 15 -167 5 -62 36
-205 55 -252 76 -194 193 -293 387 -331 109 -20 133 -22 679 -49 157 -8 1466
-9 1570 -1 102 8 375 24 530 31 162 8 227 21 310 64 175 90 255 236 295 538
25 196 37 453 21 453 -7 0 -9 -5 -5 -11 4 -8 1 -8 -12 -1 -11 5 -28 8 -39 6
-10 -1 -25 2 -32 8 -9 7 -13 7 -13 0 0 -6 -12 -9 -27 -7 -16 2 -28 4 -28 5 0
1 -12 3 -28 5 -16 2 -25 0 -21 -6 5 -9 -23 -6 -63 6 -6 2 -14 -1 -17 -8 -3 -9
-5 -8 -5 1 -1 9 -6 10 -20 3 -10 -6 -21 -7 -25 -4 -3 3 -57 7 -118 9 -62 1
-115 3 -118 4 -13 5 -89 2 -98 -4 -6 -3 -13 0 -15 6 -4 10 -6 9 -6 -1 -1 -11
-4 -11 -16 -1 -12 10 -15 10 -15 0 0 -10 -3 -10 -14 -1 -10 9 -20 9 -33 3 -12
-7 -25 -7 -36 0 -13 7 -23 6 -34 -4 -9 -7 -14 -8 -11 -3 4 7 -49 10 -160 10
-92 0 -193 2 -225 5 -32 3 -60 4 -62 2 -2 -3 -48 -4 -102 -2 -54 1 -164 3
-245 3 -82 1 -148 4 -148 6 0 2 8 10 18 18 9 8 -113 -51 -272 -131 -158 -80
-289 -146 -291 -146 -1 0 -1 10 2 23 2 12 -1 83 -5 157 -5 74 -10 123 -11 109z"/>
<path d="M2520 1320 c-9 -6 -10 -10 -3 -10 6 0 15 5 18 10 8 12 4 12 -15 0z"/>
</g>
</svg>
